arm26_optimize_states
version=1
nRows=13
nColumns=17
inDegrees=yes

# SIMM Motion File Header:
name arm26_optimize_states
datacolumns 17
datarows 13
otherdata 1
range 0.00000000 0.00023116
endheader
time	r_shoulder_elev	r_elbow_flex	r_shoulder_elev_u	r_elbow_flex_u	TRIlong.activation	TRIlong.fiber_length	TRIlat.activation	TRIlat.fiber_length	TRImed.activation	TRImed.fiber_length	BIClong.activation	BIClong.fiber_length	BICshort.activation	BICshort.fiber_length	BRA.activation	BRA.fiber_length
      0.00000000	     90.00000000	      0.00000000	     -0.00000000	      0.00000000	      0.05000000	      0.10000000	      0.05000000	      0.10000000	      0.05000000	      0.10000000	      0.05000000	      0.10000000	      0.05000000	      0.10000000	      0.05000000	      0.10000000
      0.00000766	     90.00000175	     -0.00001150	      0.41407216	     -2.82735140	      0.04999560	      0.11582230	      0.05004139	      0.09999749	      0.05017522	      0.09999749	      0.05006654	      0.10233551	      0.04999560	      0.11181231	      0.05007876	      0.09999162
      0.00001531	     90.00000580	     -0.00004108	      0.61414017	     -4.77574933	      0.04999120	      0.12773113	      0.05008271	      0.09999499	      0.05035012	      0.09999499	      0.05013297	      0.10444657	      0.04999120	      0.12146235	      0.05015740	      0.09998326
      0.00002543	     90.00001242	     -0.00009840	      0.66046273	     -6.40598485	      0.04998538	      0.13986905	      0.05013721	      0.09999168	      0.05058067	      0.09999167	      0.05022057	      0.10693646	      0.04998538	      0.13198703	      0.05026108	      0.09997223
      0.00003970	     90.00002068	     -0.00019875	      0.45582095	     -7.45347672	      0.04997718	      0.15242049	      0.05021395	      0.09998701	      0.05090516	      0.09998699	      0.05034392	      0.10996018	      0.04997718	      0.14383140	      0.05040708	      0.09995672
      0.00005641	     90.00002469	     -0.00032511	     -0.00196275	     -7.52139029	      0.04996758	      0.16242995	      0.05030349	      0.09998154	      0.05128349	      0.09998151	      0.05048782	      0.11289780	      0.04996758	      0.15445234	      0.05057739	      0.09993862
      0.00007311	     90.00002015	     -0.00044641	     -0.54654903	     -6.92978296	      0.04995798	      0.16891064	      0.05039275	      0.09997607	      0.05166037	      0.09997603	      0.05063124	      0.11531091	      0.04995798	      0.16241846	      0.05074712	      0.09992060
      0.00008982	     90.00000648	     -0.00055520	     -1.08340109	     -6.07483792	      0.04994839	      0.17297224	      0.05048173	      0.09997060	      0.05203578	      0.09997054	      0.05077420	      0.11729800	      0.04994839	      0.16829530	      0.05091630	      0.09990265
      0.00011099	     89.99997702	     -0.00067182	     -1.68141817	     -4.95595872	      0.04993624	      0.17591303	      0.05059408	      0.09996366	      0.05250943	      0.09996357	      0.05095469	      0.11932234	      0.04993624	      0.17343359	      0.05112986	      0.09988000
      0.00013215	     89.99993612	     -0.00076605	     -2.16387414	     -3.97830026	      0.04992409	      0.17742687	      0.05070599	      0.09995672	      0.05298077	      0.09995659	      0.05113443	      0.12090831	      0.04992409	      0.17670010	      0.05134252	      0.09985746
      0.00016050	     89.99986754	     -0.00086368	     -2.64835828	     -2.96510575	      0.04990783	      0.17834957	      0.05085515	      0.09994743	      0.05360831	      0.09994724	      0.05137394	      0.12250846	      0.04990783	      0.17919459	      0.05162588	      0.09982745
      0.00018884	     89.99978727	     -0.00093688	     -2.99661350	     -2.24228772	      0.04989158	      0.17871229	      0.05100351	      0.09993813	      0.05423178	      0.09993787	      0.05161212	      0.12366314	      0.04989158	      0.18045125	      0.05190763	      0.09979762
      0.00023116	     89.99965229	     -0.00101552	     -3.35934228	     -1.53183698	      0.04986733	      0.17890293	      0.05122356	      0.09992425	      0.05515515	      0.09992386	      0.05196530	      0.12481691	      0.04986733	      0.18124621	      0.05232536	      0.09975343
